<?xml version="1.0" encoding="UTF-8"?>
<svg xmlns="http://www.w3.org/2000/svg" xmlns:xlink="http://www.w3.org/1999/xlink" width="375pt" height="374.999991pt" viewBox="0 0 375 374.999991" version="1.2">
<defs>
<clipPath id="clip1">
  <path d="M 85.132812 98.890625 L 289.882812 98.890625 L 289.882812 275.890625 L 85.132812 275.890625 Z M 85.132812 98.890625 "/>
</clipPath>
<clipPath id="clip2">
  <path d="M 106 104 L 269 104 L 269 271 L 106 271 Z M 106 104 "/>
</clipPath>
<clipPath id="clip3">
  <path d="M 277.191406 119.5 L 241.929688 286.058594 L 98.117188 255.609375 L 133.378906 89.050781 Z M 277.191406 119.5 "/>
</clipPath>
<clipPath id="clip4">
  <path d="M 277.191406 119.5 L 241.929688 286.058594 L 98.117188 255.609375 L 133.378906 89.050781 Z M 277.191406 119.5 "/>
</clipPath>
<clipPath id="clip5">
  <path d="M 152 152 L 223 152 L 223 223 L 152 223 Z M 152 152 "/>
</clipPath>
<clipPath id="clip6">
  <path d="M 236.511719 181.21875 L 193.855469 236.410156 L 138.667969 193.753906 L 181.324219 138.566406 Z M 236.511719 181.21875 "/>
</clipPath>
<clipPath id="clip7">
  <path d="M 236.511719 181.21875 L 193.855469 236.410156 L 138.667969 193.753906 L 181.324219 138.566406 Z M 236.511719 181.21875 "/>
</clipPath>
</defs>
<g id="surface1">
<path style=" stroke:none;fill-rule:nonzero;fill:rgb(78.039551%,81.568909%,84.709167%);fill-opacity:1;" d="M 293.390625 250.199219 L 293.390625 124.683594 L 187.398438 63.9375 L 81.402344 124.683594 L 81.402344 250.199219 L 187.398438 310.945312 Z M 87.144531 246.894531 L 87.144531 127.988281 L 187.398438 70.546875 L 287.648438 127.988281 L 287.648438 246.894531 L 187.398438 304.335938 Z M 87.144531 246.894531 "/>
<g clip-path="url(#clip1)" clip-rule="nonzero">
<path style=" stroke:none;fill-rule:nonzero;fill:rgb(78.039551%,81.568909%,84.709167%);fill-opacity:1;" d="M 235.109375 105.023438 L 282.707031 187.390625 L 235.109375 269.761719 L 139.910156 269.761719 L 92.269531 187.390625 L 139.910156 105.023438 L 235.109375 105.023438 M 238.667969 98.890625 L 136.347656 98.890625 L 85.1875 187.390625 L 136.347656 275.890625 L 238.667969 275.890625 L 289.828125 187.390625 Z M 238.667969 98.890625 "/>
</g>
<g clip-path="url(#clip2)" clip-rule="nonzero">
<g clip-path="url(#clip3)" clip-rule="nonzero">
<g clip-path="url(#clip4)" clip-rule="nonzero">
<path style=" stroke:none;fill-rule:nonzero;fill:rgb(78.039551%,81.568909%,84.709167%);fill-opacity:1;" d="M 246.378906 240.445312 L 171.257812 264.996094 L 112.53125 212.105469 L 128.925781 134.664062 L 204.054688 110.082031 L 262.773438 163.003906 L 246.378906 240.445312 M 250.75 244.394531 L 268.371094 161.160156 L 205.273438 104.320312 L 124.558594 130.714844 L 106.9375 213.949219 L 170.03125 270.789062 Z M 250.75 244.394531 "/>
</g>
</g>
</g>
<g clip-path="url(#clip5)" clip-rule="nonzero">
<g clip-path="url(#clip6)" clip-rule="nonzero">
<g clip-path="url(#clip7)" clip-rule="nonzero">
<path style=" stroke:none;fill-rule:nonzero;fill:rgb(78.039551%,81.568909%,84.709167%);fill-opacity:1;" d="M 215.183594 208.816406 C 217.449219 205.882812 219.140625 202.714844 220.355469 199.449219 C 220.488281 199.277344 220.578125 199.070312 220.550781 198.84375 C 225.273438 185.070312 221.03125 169.257812 208.917969 159.894531 L 208.226562 159.359375 C 208.128906 159.21875 207.96875 159.160156 207.882812 159.09375 C 192.667969 148.300781 171.492188 151.285156 159.996094 166.160156 C 148.234375 181.378906 151.042969 203.320312 166.261719 215.082031 C 181.484375 226.84375 203.421875 224.035156 215.183594 208.816406 Z M 213.460938 207.480469 C 208.828125 213.476562 202.457031 217.4375 195.609375 219.167969 L 193.457031 209.925781 C 193.742188 209.734375 194.019531 209.46875 194.25 209.164062 C 194.652344 208.648438 194.886719 208.074219 195.007812 207.476562 L 201.808594 206.605469 C 202.015625 207.316406 202.488281 207.953125 203.089844 208.421875 C 204.773438 209.722656 207.140625 209.417969 208.441406 207.734375 C 209.109375 206.875 209.363281 205.832031 209.160156 204.847656 L 217.367188 201 C 216.300781 203.273438 215.023438 205.457031 213.460938 207.480469 Z M 172.164062 191.40625 C 172.363281 191.148438 172.488281 190.898438 172.613281 190.648438 L 179.273438 192.011719 C 179.300781 192.238281 179.367188 192.425781 179.429688 192.613281 L 171.679688 197.917969 L 170.566406 192.582031 C 171.160156 192.351562 171.730469 191.964844 172.164062 191.40625 Z M 168.148438 190.367188 C 167.414062 189.800781 167.285156 188.808594 167.851562 188.074219 C 168.417969 187.339844 169.414062 187.214844 170.144531 187.78125 C 170.878906 188.347656 171.007812 189.339844 170.441406 190.074219 C 169.875 190.804688 168.878906 190.933594 168.148438 190.367188 Z M 172.707031 187.761719 L 180.542969 183.417969 C 180.671875 183.519531 180.722656 183.628906 180.855469 183.726562 C 182.535156 185.027344 184.90625 184.722656 186.203125 183.042969 C 187.402344 181.492188 187.207031 179.339844 185.832031 178 L 190.738281 168.710938 C 190.816406 168.699219 190.902344 168.765625 190.976562 168.757812 L 194.382812 178.964844 C 194.097656 179.15625 193.820312 179.425781 193.589844 179.726562 C 192.753906 180.804688 192.617188 182.144531 193 183.335938 L 185.351562 188.511719 C 183.714844 187.246094 181.308594 187.59375 180.042969 189.230469 C 179.878906 189.445312 179.742188 189.621094 179.652344 189.824219 L 172.914062 188.472656 C 172.886719 188.246094 172.8125 187.980469 172.707031 187.761719 Z M 168.851562 185.265625 L 167.066406 180.714844 C 167.386719 180.480469 167.703125 180.246094 167.972656 179.902344 C 168.171875 179.640625 168.292969 179.394531 168.417969 179.144531 L 179.484375 181.222656 C 179.492188 181.300781 179.503906 181.375 179.554688 181.484375 L 171.394531 185.988281 C 170.625 185.464844 169.738281 185.191406 168.851562 185.265625 Z M 182.21875 181.960938 C 181.488281 181.394531 181.359375 180.398438 181.925781 179.667969 C 182.492188 178.933594 183.488281 178.808594 184.21875 179.375 C 184.953125 179.941406 185.078125 180.933594 184.511719 181.667969 C 183.945312 182.398438 182.953125 182.527344 182.21875 181.960938 Z M 210.71875 185.183594 L 210.621094 185.3125 C 209.886719 186.261719 209.695312 187.492188 209.949219 188.585938 L 203.519531 192.363281 C 203.335938 192.152344 203.15625 191.941406 202.898438 191.742188 C 202.207031 191.210938 201.316406 190.933594 200.542969 190.957031 L 198.683594 185.25 C 199.046875 185.046875 199.359375 184.738281 199.625 184.390625 C 200.390625 183.402344 200.617188 182.128906 200.238281 181.011719 L 203.277344 178.953125 C 204.304688 179.675781 205.609375 179.855469 206.726562 179.480469 Z M 214.636719 186.351562 C 215.371094 186.921875 215.496094 187.914062 214.929688 188.648438 C 214.363281 189.378906 213.371094 189.507812 212.636719 188.941406 C 211.90625 188.375 211.777344 187.378906 212.34375 186.648438 C 212.910156 185.914062 213.902344 185.785156 214.636719 186.351562 Z M 198.453125 191.613281 C 198.132812 191.847656 197.8125 192.082031 197.546875 192.425781 C 197.3125 192.730469 197.121094 193.066406 197.007812 193.390625 L 186.878906 191.347656 C 186.875 190.996094 186.792969 190.660156 186.667969 190.285156 L 194.273438 185.078125 C 194.964844 185.609375 195.734375 185.863281 196.550781 185.875 Z M 201.5625 193.46875 C 202.296875 194.035156 202.425781 195.027344 201.855469 195.761719 C 201.289062 196.492188 200.296875 196.621094 199.5625 196.054688 C 198.832031 195.488281 198.703125 194.492188 199.269531 193.761719 C 199.835938 193.027344 200.832031 192.898438 201.5625 193.46875 Z M 203.167969 202.351562 C 202.882812 202.542969 202.640625 202.769531 202.40625 203.070312 C 202.105469 203.457031 201.890625 203.914062 201.753906 204.359375 L 194.722656 205.257812 C 194.617188 205.039062 194.46875 204.785156 194.328125 204.609375 L 199.195312 198.316406 C 199.84375 198.542969 200.550781 198.609375 201.238281 198.519531 Z M 206.421875 204.109375 C 207.15625 204.675781 207.285156 205.671875 206.71875 206.402344 C 206.152344 207.136719 205.15625 207.261719 204.421875 206.695312 C 203.691406 206.128906 203.5625 205.136719 204.128906 204.402344 C 204.695312 203.671875 205.691406 203.542969 206.421875 204.109375 Z M 185.605469 194.421875 C 185.8125 194.242188 185.945312 194.070312 186.078125 193.898438 C 186.179688 193.765625 186.3125 193.59375 186.371094 193.433594 L 196.859375 195.546875 C 196.960938 196.039062 197.179688 196.554688 197.503906 196.941406 L 192.636719 203.234375 C 191.941406 202.972656 191.160156 202.917969 190.4375 203.050781 Z M 182.0625 192.859375 C 181.328125 192.289062 181.203125 191.296875 181.769531 190.5625 C 182.335938 189.832031 183.328125 189.703125 184.0625 190.269531 C 184.792969 190.835938 184.921875 191.832031 184.355469 192.5625 C 183.789062 193.296875 182.796875 193.425781 182.0625 192.859375 Z M 195.605469 183.351562 C 194.875 182.785156 194.746094 181.792969 195.3125 181.058594 C 195.878906 180.328125 196.871094 180.199219 197.605469 180.765625 C 198.339844 181.332031 198.464844 182.328125 197.898438 183.058594 C 197.332031 183.792969 196.339844 183.917969 195.605469 183.351562 Z M 180.558594 194.449219 L 180.730469 194.582031 C 181.589844 195.25 182.632812 195.503906 183.660156 195.332031 L 188.523438 204.1875 C 188.425781 204.316406 188.316406 204.371094 188.214844 204.5 C 187.347656 205.621094 187.21875 207.035156 187.726562 208.253906 L 175.175781 216.117188 L 172.089844 200.234375 Z M 192.234375 205.539062 C 192.964844 206.105469 193.09375 207.097656 192.527344 207.832031 C 191.960938 208.566406 190.964844 208.691406 190.234375 208.125 C 189.5 207.558594 189.375 206.566406 189.941406 205.832031 C 190.507812 205.101562 191.5 204.972656 192.234375 205.539062 Z M 218.542969 198.050781 L 208.285156 202.863281 C 208.144531 202.683594 207.929688 202.519531 207.757812 202.386719 C 207.023438 201.820312 206.132812 201.542969 205.207031 201.585938 L 203.171875 197.535156 C 203.347656 197.394531 203.449219 197.265625 203.582031 197.09375 C 204.183594 196.316406 204.445312 195.351562 204.363281 194.390625 L 211.046875 190.464844 L 211.304688 190.664062 C 212.984375 191.964844 215.355469 191.660156 216.65625 189.980469 C 217.054688 189.460938 217.292969 188.886719 217.410156 188.289062 L 220.316406 187.917969 C 220.242188 191.308594 219.671875 194.722656 218.542969 198.050781 Z M 220.226562 185.714844 L 217.09375 186.117188 C 216.828125 185.566406 216.453125 185.070312 215.9375 184.671875 C 214.945312 183.90625 213.640625 183.722656 212.511719 184.023438 L 208.507812 178.242188 L 208.542969 178.199219 C 209.84375 176.519531 209.539062 174.148438 207.855469 172.847656 C 207.640625 172.683594 207.347656 172.523438 207.101562 172.402344 L 208.273438 162.152344 C 215.652344 168.199219 219.746094 176.804688 220.226562 185.714844 Z M 204.523438 177.160156 C 203.792969 176.59375 203.664062 175.601562 204.230469 174.867188 C 204.796875 174.132812 205.792969 174.007812 206.523438 174.574219 C 207.257812 175.140625 207.382812 176.132812 206.816406 176.867188 C 206.25 177.597656 205.257812 177.726562 204.523438 177.160156 Z M 206.214844 160.628906 L 204.925781 172.097656 C 203.972656 172.257812 203.105469 172.757812 202.507812 173.535156 C 201.671875 174.613281 201.5 175.992188 201.929688 177.222656 L 199.035156 179.183594 L 198.863281 179.050781 C 198.128906 178.484375 197.238281 178.210938 196.355469 178.285156 L 193.121094 168.210938 C 193.59375 167.957031 193.980469 167.632812 194.3125 167.203125 C 195.179688 166.082031 195.300781 164.589844 194.792969 163.375 L 202.636719 158.484375 C 203.882812 159.101562 205.058594 159.804688 206.214844 160.628906 Z M 190.296875 166.164062 C 189.5625 165.597656 189.4375 164.605469 190.003906 163.871094 C 190.570312 163.136719 191.5625 163.011719 192.296875 163.578125 C 193.027344 164.144531 193.15625 165.136719 192.589844 165.871094 C 192.023438 166.601562 191.03125 166.730469 190.296875 166.164062 Z M 200.277344 157.347656 L 193.371094 161.652344 C 191.71875 160.582031 189.511719 160.941406 188.277344 162.539062 L 188.246094 162.582031 L 174.429688 157.550781 C 182.558594 153.984375 191.902344 153.835938 200.277344 157.347656 Z M 187.496094 164.617188 C 187.414062 165.796875 187.910156 166.9375 188.824219 167.710938 L 183.9375 176.882812 C 183.460938 176.789062 183.035156 176.804688 182.578125 176.863281 L 174.128906 159.726562 Z M 161.71875 167.492188 C 164.417969 164 167.707031 161.171875 171.367188 159.109375 L 180.609375 177.894531 C 180.46875 177.988281 180.335938 178.160156 180.203125 178.335938 C 180.035156 178.550781 179.878906 178.839844 179.753906 179.089844 L 168.722656 176.96875 C 168.5625 176.019531 168.105469 175.183594 167.285156 174.550781 C 165.863281 173.449219 163.890625 173.507812 162.554688 174.613281 L 158.765625 172.027344 C 159.617188 170.484375 160.585938 168.960938 161.71875 167.492188 Z M 163.660156 176.570312 C 164.226562 175.835938 165.21875 175.707031 165.953125 176.273438 C 166.6875 176.839844 166.8125 177.835938 166.246094 178.566406 C 165.679688 179.300781 164.6875 179.429688 163.953125 178.863281 C 163.21875 178.296875 163.09375 177.300781 163.660156 176.570312 Z M 157.777344 174.019531 L 161.308594 176.402344 C 160.839844 177.902344 161.328125 179.585938 162.621094 180.585938 C 163.308594 181.121094 164.199219 181.394531 165.015625 181.40625 L 166.824219 186.109375 C 166.582031 186.332031 166.371094 186.515625 166.136719 186.816406 C 165.738281 187.335938 165.5 187.910156 165.417969 188.464844 L 155 189.640625 C 154.632812 184.328125 155.539062 178.96875 157.777344 174.019531 Z M 155.15625 191.757812 L 165.648438 190.570312 C 165.878906 191.164062 166.296875 191.691406 166.8125 192.089844 C 167.289062 192.457031 167.863281 192.695312 168.382812 192.824219 L 169.632812 199.226562 L 160.339844 205.546875 C 157.554688 201.398438 155.816406 196.609375 155.15625 191.757812 Z M 167.597656 213.355469 C 165.3125 211.589844 163.300781 209.554688 161.621094 207.363281 L 170.089844 201.578125 L 173.050781 216.816406 C 171.179688 215.851562 169.320312 214.691406 167.597656 213.355469 Z M 189.074219 209.984375 C 189.753906 210.441406 190.601562 210.683594 191.375 210.660156 L 193.53125 219.628906 C 187.761719 220.679688 181.761719 220.242188 176.171875 218.125 Z M 189.074219 209.984375 "/>
</g>
</g>
</g>
</g>
</svg>
